<svg xmlns="http://www.w3.org/2000/svg" xmlns:xlink="http://www.w3.org/1999/xlink" class="ebnf" style="width: 902px; height: 157px;"><style>svg rect.term {
  fill: white;
  stroke: black;
  stroke-width: 2;
}

svg a.nterm:hover rect {
  fill: lightgrey;
}

svg rect.term {
  fill: white;
  stroke: black;
  stroke-width: 2;
}

svg polygon.special {
  fill: white;
  stroke: black;
  stroke-width: 2;
}

svg rect.nterm {
  fill: white;
  stroke: black;
  stroke-width: 2;
}

svg .path {
  stroke: black;
  stroke-width: 2;
}

svg text {
  fill: black;
  font-weight: bold;
}

svg .circleS {
  fill: none;
  stroke: black;
  stroke-width: 2;
}

svg .circleE {
  fill: &quot;black&quot;;
  stroke: black;
  stroke-width: 2;
}</style><g transform="translate(0,5)"><polygon points="15 9, 15 19, 25 14" class="triangle"></polygon><circle cx="4" cy="14" r="3" class="circleS"></circle><path class="path" fill="none" stroke-width="2" d="m 7 14 h 28"></path><polygon points="880 9, 880 19, 890 14" class="triangle"></polygon><circle cx="898" cy="14" r="3" class="circleE"></circle><path class="path" fill="none" stroke-width="2" d="m 871 14 h 28"></path><g transform="translate(31,0)"><path class="path" fill="none" stroke-width="2" d="m 0 14 h 840"></path><g transform="translate(0,0)"><path class="path" fill="none" stroke-width="2" d="m 0 14 h 504"></path><g transform="translate(0,0)"><path class="path" fill="none" stroke-width="2" d="m 0 14 h 308"></path><g transform="translate(0,0)"><path class="path" fill="none" stroke-width="2" d="m 0 14 h 77 c -10 0 -14 4 -14 14 v 7 M 0 14 c 10 0 14 4 14 14 v 7"></path><path class="path" fill="none" stroke-width="2" d="M 14 35 v 0 c 0 10 4 14 14 14 M 63 35 v 0 c 0 10 -4 14 -14 14 h 0"></path><g transform="translate(28,35)"><rect class="term" rx="10" ry="10" width="21" height="28"></rect><text x="7" y="18" font-family="monospace" fill="white">-</text></g><g transform="translate(28,0)"></g></g><g transform="translate(84,0)"><path class="path" fill="none" stroke-width="2" d="m 0 14 h 224 c -10 0 -14 4 -14 14 v 7 M 0 14 c 10 0 14 4 14 14 v 7"></path><path class="path" fill="none" stroke-width="2" d="M 14 35 v 0 c 0 10 4 14 14 14 M 210 35 v 0 c 0 10 -4 14 -14 14 h 0"></path><g transform="translate(28,35)"><path class="path" fill="none" stroke-width="2" d="m 0 14 h 168"></path><g transform="translate(0,0)"><a xlink:href="#digitP" class="nterm"><rect width="56" height="28" class="nterm"></rect><text x="7" y="18" font-family="monospace" fill="white">digitP</text></a></g><g transform="translate(63,0)"><path class="path" fill="none" stroke-width="2" d="m 0 14 h 28 c -10 0 -14 4 -14 14 c 0 10 4 14 14 14 h 49 c 10 0 14 -4 14 -14 c 0 -10 -4 -14 -14 -14 h 28 z"></path><g transform="translate(28,28)"><a xlink:href="#digit" class="nterm"><rect width="49" height="28" class="nterm"></rect><text x="7" y="18" font-family="monospace" fill="white">digit</text></a></g></g></g><g transform="translate(28,0)"><rect class="term" rx="10" ry="10" width="21" height="28"></rect><text x="7" y="18" font-family="monospace" fill="white">0</text></g></g></g><g transform="translate(315,0)"><path class="path" fill="none" stroke-width="2" d="m 0 14 h 189 c -10 0 -14 4 -14 14 v 7 M 0 14 c 10 0 14 4 14 14 v 7"></path><path class="path" fill="none" stroke-width="2" d="M 14 35 v 14 c 0 10 4 14 14 14 M 175 35 v 14 c 0 10 -4 14 -14 14 h 0"></path><g transform="translate(28,35)"><path class="path" fill="none" stroke-width="2" d="m 0 28 h 133"></path><g transform="translate(0,14)"><rect class="term" rx="10" ry="10" width="21" height="28"></rect><text x="7" y="18" font-family="monospace" fill="white">.</text></g><g transform="translate(28,-14)"><path class="path" fill="none" stroke-width="2" d="m 0 42 h 28 c -10 0 -14 -4 -14 -14 v 0 c 0 -10 4 -14 14 -14 h 49 c 10 0 14 4 14 14 v 0 c 0 10 -4 14 -14 14 h 28 z"></path><g transform="translate(28,28)"><a xlink:href="#digit" class="nterm"><rect width="49" height="28" class="nterm"></rect><text x="7" y="18" font-family="monospace" fill="white">digit</text></a></g></g></g><g transform="translate(28,0)"></g></g></g><g transform="translate(511,0)"><path class="path" fill="none" stroke-width="2" d="m 0 14 h 329 c -10 0 -14 4 -14 14 v 7 M 0 14 c 10 0 14 4 14 14 v 7"></path><path class="path" fill="none" stroke-width="2" d="M 14 35 v 14 c 0 10 4 14 14 14 M 315 35 v 14 c 0 10 -4 14 -14 14 h 0"></path><g transform="translate(28,35)"><path class="path" fill="none" stroke-width="2" d="m 0 28 h 273"></path><g transform="translate(0,14)"><path class="path" fill="none" stroke-width="2" d="m 0 14 h 161"></path><g transform="translate(0,0)"><path class="path" fill="none" stroke-width="2" d="m 0 14 h 77 c -10 0 -14 4 -14 14 v 7 M 0 14 c 10 0 14 4 14 14 v 7"></path><path class="path" fill="none" stroke-width="2" d="M 14 35 v 0 c 0 10 4 14 14 14 M 63 35 v 0 c 0 10 -4 14 -14 14 h 0"></path><g transform="translate(28,35)"><rect class="term" rx="10" ry="10" width="21" height="28"></rect><text x="7" y="18" font-family="monospace" fill="white">e</text></g><g transform="translate(28,0)"><rect class="term" rx="10" ry="10" width="21" height="28"></rect><text x="7" y="18" font-family="monospace" fill="white">E</text></g></g><g transform="translate(84,0)"><path class="path" fill="none" stroke-width="2" d="m 0 14 h 77 c -10 0 -14 4 -14 14 v 42 M 0 14 c 10 0 14 4 14 14 v 42"></path><path class="path" fill="none" stroke-width="2" d="M 14 70 v 0 c 0 10 4 14 14 14 M 63 70 v 0 c 0 10 -4 14 -14 14 h 0"></path><path class="path" fill="none" stroke-width="2" d="M 14 35 v 0 c 0 10 4 14 14 14 M 63 35 v 0 c 0 10 -4 14 -14 14 h 0"></path><g transform="translate(28,70)"><rect class="term" rx="10" ry="10" width="21" height="28"></rect><text x="7" y="18" font-family="monospace" fill="white">+</text></g><g transform="translate(28,35)"><rect class="term" rx="10" ry="10" width="21" height="28"></rect><text x="7" y="18" font-family="monospace" fill="white">-</text></g><g transform="translate(28,0)"></g></g></g><g transform="translate(168,-14)"><path class="path" fill="none" stroke-width="2" d="m 0 42 h 28 c -10 0 -14 -4 -14 -14 v 0 c 0 -10 4 -14 14 -14 h 49 c 10 0 14 4 14 14 v 0 c 0 10 -4 14 -14 14 h 28 z"></path><g transform="translate(28,28)"><a xlink:href="#digit" class="nterm"><rect width="49" height="28" class="nterm"></rect><text x="7" y="18" font-family="monospace" fill="white">digit</text></a></g></g></g><g transform="translate(28,0)"></g></g></g></g></svg>